<svg width="20" height="20" viewBox="0 0 20 20" fill="none" xmlns="http://www.w3.org/2000/svg">
<path d="M13.8838 13.5952L4.75391 18.3979C4.30082 18.5791 3.91521 18.6244 3.66602 18.5112L11.3916 11.2387L13.8838 13.5952ZM10.9385 10.8315L3.21289 18.1264C3.14493 17.9452 3.07715 17.7633 3.07715 17.5141V4.21625C3.07716 3.96727 3.14498 3.78602 3.21289 3.60493L10.9385 10.8315ZM17.2588 9.99262C18.165 10.4684 18.165 11.262 17.2588 11.7377L14.4268 13.2329L11.8447 10.8315L14.3594 8.43012L17.2588 9.99262ZM3.66602 3.19672C3.91516 3.06082 4.3005 3.12885 4.68555 3.31L13.7705 8.11274L11.3916 10.4008L3.66602 3.19672Z" fill="#090C13"/>
</svg>
