<svg width="15" height="12" viewBox="0 0 15 12" fill="none" xmlns="http://www.w3.org/2000/svg">
  <path d="M0.292745 3.92871C-0.09768 4.31914 -0.0974823 4.95223 0.292745 5.34277L6.657 11.707C7.04753 12.0976 7.68054 12.0976 8.07107 11.707L14.4353 5.34277C14.8256 4.95222 14.8257 4.31914 14.4353 3.92871C14.0449 3.53828 13.4118 3.53848 13.0213 3.92871L8.36403 8.58594L8.36403 0.999999C8.36403 0.447714 7.91632 -6.32462e-07 7.36403 -6.43784e-07C6.81175 -2.31699e-07 6.36403 0.447715 6.36403 0.999999L6.36403 8.58594L1.70681 3.92871C1.31626 3.53848 0.68317 3.53829 0.292745 3.92871Z" fill="white"/>
</svg>
